<svg width="241" height="69" viewBox="0 0 241 69" fill="none" xmlns="http://www.w3.org/2000/svg">
<path d="M24.1802 13.5341L26.2999 14.2099L26.2571 14.6497L24.0732 14.4137L24.1802 13.5341ZM15.7551 13.4804L16.9755 14.521L21.0221 14.0704L21.4075 14.5639L21.8465 14.6175L23.1953 14.3386C28.1332 14.8535 31.7008 17.3102 33.9007 21.7085C34.4842 21.7809 34.6983 22.5426 34.5431 23.9935L34.2112 27.083L33.3227 26.9757L33.3762 26.5359L33.9757 25.2701L33.5903 24.7766L34.0506 24.3797L33.6652 23.8862L32.8088 23.8111C32.6161 25.4927 30.938 27.2332 27.7773 29.0355L27.7344 29.4753L28.1734 29.4967C29.2787 29.6335 30.8229 29.073 32.8088 27.8125L32.7339 28.6922L30.2181 31.0844C31.8373 31.2561 34.2112 33.879 37.3372 38.9478C36.9946 42.166 32.2013 45.4916 22.9598 48.9244C19.0042 50.8393 15.9585 51.6868 13.8174 51.4669L13.0359 50.4478L12.597 50.4263C12.5114 51.306 11.8797 51.6761 10.7021 51.542C10.6004 52.3573 10.3087 52.7649 9.8243 52.7649H9.66372C9.0776 52.6925 8.90631 51.6385 9.14986 49.6003L8.71094 49.5681L8.0365 51.7029L7.59758 51.6493C7.90268 48.7394 7.61899 47.2402 6.74114 47.1544L6.50562 45.3414L6.99807 44.9445L6.58056 44.451L10.8627 25.8064L10.4773 25.3452L10.9163 25.3988L10.5202 24.9268L11.687 18.3829L11.7192 17.9431L11.1732 14.7785L11.6121 14.7999C13.2527 13.8988 14.54 13.4482 15.4768 13.4482C15.5758 13.4482 15.6694 13.459 15.7551 13.4804ZM26.225 19.091L26.1714 19.5308L29.6507 20.3568C29.6989 19.7722 29.2921 19.4342 28.4303 19.3484L26.225 19.091ZM17.757 23.4785L17.8855 26.5896L21.9 26.1497L21.8251 27.0294L28.3232 24.1973L28.2697 24.6479L24.9296 26.9328C28.5748 25.9244 30.5393 24.2188 30.8176 21.8158L29.929 21.7085C29.7578 23.1621 29.2385 23.8433 28.3768 23.7575L28.4517 22.8778L28.0128 22.8456L28.6123 21.5476L28.9977 22.041L29.4366 22.1269L29.4901 21.687C28.4196 20.6652 26.7094 20.0323 24.3622 19.7882C20.2862 19.3243 18.0835 20.5553 17.757 23.4785ZM28.0128 22.8456L27.9914 23.2962L27.0065 24.0471L26.5675 24.0149L28.0128 22.8456ZM25.9895 33.2943L25.968 33.702L30.2716 34.6353L30.7105 34.6674L30.7641 34.2276L29.0512 33.6054L25.9895 33.2943ZM16.0977 34.8498L14.7702 42.6917L15.1663 43.1852L15.6052 43.2388C17.7088 43.4748 22.4834 41.6297 29.929 37.7034L30.9139 36.9202C30.8631 35.7268 29.7578 35.0188 27.5953 34.7962L24.1053 34.3778L16.0977 34.8498ZM31.8453 36.5555L30.7855 38.2505L32.6803 37.1348L32.2949 36.6413L31.8453 36.5555ZM34.7251 38.6688C34.6234 39.5861 31.7222 41.7799 26.0216 45.2556C32.5144 42.6595 35.8304 40.6615 35.9669 39.2589L35.528 39.2052L35.164 38.7118L34.7251 38.6688Z" fill="#FD7519"/>
<path d="M44.1264 14.5961C44.7099 14.5961 45.0043 15.4811 45.0043 17.2458H45.8928L47.2096 16.3554L47.6485 16.806L45.4539 41.5224C47.3166 40.6374 52.308 39.6075 60.4308 38.4328H60.8697V38.8727C50.5925 40.5542 45.4539 41.8764 45.4539 42.8419L50.2927 41.5224V41.9622L58.6644 40.1922V40.632L59.1033 40.1922H59.5422L59.9811 40.632L62.1865 40.1922H63.9528L67.036 40.632V41.0826C67.036 41.9622 64.8334 42.6971 60.4308 43.2817V43.7323L60.8697 43.2817H61.3086L64.3918 43.7323L64.8307 43.2817V44.6119L50.2927 48.1413L41.0433 51.6707H39.7265L37.9601 49.4608H37.5212V49.021C37.5212 48.2781 38.11 47.8383 39.2876 47.7015V46.3713L37.9601 44.6119L39.7265 24.7444H40.1654V26.5145L39.7265 29.604H40.6044L39.7265 35.3433L40.1654 35.7831L39.7265 37.5424V39.7523H40.1654L41.9211 16.3554C42.5126 16.3554 42.8097 15.9156 42.8097 15.0359L43.2486 14.5961H44.1264Z" fill="#FD7519"/>
<path d="M84.5951 14.7248C88.0476 14.7248 91.2806 15.7547 94.2942 17.8144L93.8445 18.2542V18.694L95.6109 21.3437H94.7331L94.2942 20.9039H93.8445L95.172 30.6124H95.6109C95.6109 29.14 95.9027 28.4025 96.4888 28.4025V30.1726C96.4888 31.8327 95.0221 35.6597 92.0889 41.6511H92.5278C90.4563 44.5047 87.3731 47.1544 83.2783 49.6003L81.073 50.0401H80.6341C73.6542 50.0401 69.2489 47.2456 67.4236 41.6511L65.6572 39.0014L66.0961 38.5616L65.6572 35.472V34.5923C65.6572 32.1465 68.0044 27.8769 72.7014 21.7836V22.2234C70.5442 25.136 68.7859 28.3757 67.4236 31.9426V32.3825H67.8625C68.9331 28.07 72.8968 22.6257 79.7562 16.0443L76.6731 17.8144H76.2342C76.2342 16.4627 79.0202 15.4328 84.5951 14.7248ZM82.4005 22.2234L81.9508 21.7836V22.2234L82.4005 22.674L79.3173 25.313C76.8765 25.313 74.524 29.4377 72.2625 37.6819C72.2625 40.0366 73.5846 42.0963 76.2342 43.861H76.6731C79.8847 43.861 83.5513 40.4764 87.6782 33.702C89.1476 30.4837 89.8835 28.1316 89.8835 26.6432V23.1138C89.8835 22.2985 88.4169 21.7085 85.4836 21.3437H85.034L84.5951 21.7836H84.1562V21.3437L82.4005 22.2234ZM95.172 23.5536H96.0499V25.7635H95.172V23.5536ZM72.7014 28.4025L71.3846 31.0522H71.8235L73.151 28.4025H72.7014ZM89.8835 31.0522L88.1279 35.472H89.4446L90.7614 32.3825L90.3225 31.0522H89.8835ZM92.9667 32.8223L92.5278 34.1418V35.0322H92.9667L93.4056 33.2621V32.8223H92.9667ZM66.974 34.5923V38.1217H67.4236V34.5923H66.974ZM87.6782 35.9118L85.9226 38.1217H86.3615L88.1279 35.9118H87.6782ZM73.5899 45.6203V46.0602L75.7845 47.3904V46.9506L73.5899 45.6203Z" fill="#FD7519"/>
<path d="M113.074 15.4543H113.512C117.779 15.4543 121.009 17.219 123.201 20.743V21.1936H122.323L122.762 21.6334V22.0732C120.998 21.8667 120.118 21.5744 120.118 21.1936C113.258 21.1936 108.12 24.7229 104.702 31.7817L103.824 34.8713L105.141 43.2603H106.468C110.13 43.2603 114.24 40.6105 118.801 35.3111H119.24V35.7509C116.114 40.2726 112.586 42.9223 108.663 43.7001V44.1399H109.113C112.18 44.1399 115.996 41.4956 120.557 36.2015L121.884 37.9608V39.291C121.884 40.2431 119.681 42.4503 115.279 45.91L114.829 46.3498H114.39V47.2295C119.384 44.7916 121.884 43.0296 121.884 41.9408H122.762V42.3806C119.063 46.795 114.808 48.9995 109.99 48.9995V49.4394H112.196L113.951 48.9995H114.39V49.4394L109.113 50.2976C106.878 50.2976 104.525 48.6884 102.058 45.4702V45.91L104.263 49.4394V49.8577H102.936C100.208 47.9858 98.5945 45.6391 98.0967 42.8204L97.6578 37.0812C97.6578 29.7086 99.1244 24.9992 102.058 22.9529V23.3927L99.4135 27.8125V28.2523H99.8524C99.8524 25.4497 103.524 21.4778 110.868 16.334L109.552 16.7738H109.113V16.334L113.074 15.4543ZM108.224 17.2136H108.663V17.6535L105.58 18.9837C105.58 18.399 106.46 17.809 108.224 17.2136ZM104.263 20.3032V20.743L102.058 22.9529V22.5131L104.263 20.3032ZM98.9746 41.4902V42.8204L99.4135 44.5798H99.8524V44.1399L99.4135 41.4902H98.9746Z" fill="#FD7519"/>
<path d="M149.4 13.4482L149.839 13.8881V14.3386L149.4 14.7785L148.961 14.3386H148.511L144.55 16.9776H144.111C144.111 16.2052 145.872 15.0306 149.4 13.4482ZM132.217 14.3386L132.656 18.3078C133.24 18.3078 133.684 17.4255 133.984 15.6581H134.423L134.862 17.4282L133.534 24.4869L138.384 20.9576H138.823L133.534 25.8064V26.257L143.672 18.7477L144.111 19.1875C148.064 15.9558 150.708 14.3386 152.044 14.3386H152.483L152.922 16.098L149.4 19.6273H149.839C150.422 18.4553 151.305 17.868 152.483 17.868L152.922 18.3078V17.868L152.483 17.4282L152.922 16.9776H154.238L154.688 18.3078C152.475 19.3457 147.333 23.1728 139.262 29.7864C141.253 34.1284 144.778 40.0152 149.839 47.444V48.3237L149.4 51.4133L148.961 50.9734H148.511L148.072 52.7328H146.316V51.8531H145.878V52.7328H144.989C144.989 51.6949 141.759 46.2533 135.301 36.4053L134.423 33.7556L132.217 34.1954C131.837 41.2757 130.914 45.6928 129.445 47.444V47.8839L125.045 47.444V46.1138L125.484 43.0243C124.598 43.0243 124.156 42.1419 124.156 40.3745C124.641 37.4352 125.125 35.9655 125.612 35.9655L125.173 35.5257C126.051 27.4236 126.932 22.5667 127.818 20.9576L127.368 19.6273L128.695 16.098V15.6581L128.256 15.2183V14.7785H129.134V17.868H129.573L130.012 16.5378L129.573 16.098V15.6581C129.865 14.7785 130.745 14.3386 132.217 14.3386ZM143.672 16.9776H144.111L142.345 18.7477H141.906L143.672 16.9776ZM128.695 19.1875L128.256 21.8372V23.6073H128.695L129.134 19.6273V19.1875H128.695ZM141.467 18.7477H141.906L139.262 20.9576H138.823L141.467 18.7477ZM147.194 20.5177L145.428 21.8372L144.989 22.2771V22.7169H145.428L147.194 21.3974L147.633 20.9576V20.5177H147.194ZM139.711 45.674H140.15L141.467 46.9935H141.028L139.711 45.674ZM141.467 46.9935C142.208 46.9935 142.944 48.4685 143.672 51.4133V51.8531H143.233L141.467 46.9935Z" fill="#FD7519"/>
<path d="M169.894 12.826C170.079 13.7137 171.254 14.1562 173.416 14.1562L176.939 29.604H180.022V30.0438L177.377 30.4837V30.9235C178.261 30.9235 178.705 31.2212 178.705 31.8139H182.227V32.2537C182.227 32.9135 180.755 33.4981 177.816 34.0131L178.705 36.6628L178.255 37.993L178.705 40.632L178.255 41.0826H178.705L178.255 41.5224L178.705 46.8218V49.4608L178.255 49.021H177.816L179.144 55.6399H178.255C178.255 54.7603 177.961 54.3204 177.377 54.3204V54.7603L177.816 56.0905H177.377L176.939 55.6399H176.5C176.5 56.525 176.205 56.9702 175.622 56.9702L173.416 49.4608H172.978V51.2309H172.528L171.65 45.9314L172.978 46.8218V46.3713C172.734 43.7269 172.292 42.4021 171.65 42.4021L172.089 41.9622V40.632H171.211V41.9622H170.772V40.1922L171.211 39.7523H170.772L170.333 40.1922V38.4328H170.772L171.211 38.8727H171.65L171.211 38.4328V35.7831L161.523 37.993V38.8727L164.606 37.993L166.362 38.4328L168.567 37.993V38.8727C162.401 39.983 159.317 41.4527 159.317 43.2817C158.539 46.5215 157.658 48.5812 156.673 49.4608V50.3512H155.356L154.918 49.9114H154.468V50.3512L153.151 49.4608L154.029 46.8218H153.59C152.712 46.8218 152.273 47.9992 152.273 50.3512L151.385 49.4608L151.834 46.8218L150.507 45.4916L158.001 27.3941H158.44C158.44 28.2818 158.731 28.7243 159.317 28.7243L159.756 26.5145L159.317 26.9543H158.879V25.1842L159.317 22.9851L159.756 23.4249H160.195L159.756 22.9851V22.5345L160.645 20.7752H161.084L161.523 21.215H161.962V20.7752C161.962 20.1905 161.523 19.8955 160.645 19.8955L162.84 13.7164H164.606L164.167 14.1562V14.5961C166.201 13.416 168.109 12.826 169.894 12.826ZM167.25 22.9851L163.728 32.2537H164.606C167.539 32.2537 169.15 31.3714 169.445 29.604L167.689 22.9851H167.25ZM163.278 25.6241L162.401 28.7243L161.962 28.2738H161.523L161.962 30.0438H162.401L163.728 26.0746V25.6241H163.278ZM158.44 29.604L158.001 30.0438V30.9235H158.44L158.879 29.604H158.44ZM161.084 31.3633L160.645 33.1334H161.084L161.523 32.6936V31.3633H161.084ZM157.112 31.8139L156.673 33.5732H157.112L158.001 31.8139H157.112ZM164.606 33.1334V33.5732H165.484C168.123 33.2809 169.445 32.8411 169.445 32.2537H169.006L164.606 33.1334ZM170.772 42.8419H171.65V45.4916H171.211L170.772 42.8419ZM176.939 45.9314V46.8218L177.377 48.5812H177.816V47.7015L177.377 45.9314H176.939ZM172.528 47.2617V48.1413L173.855 47.7015V46.8218L172.528 47.2617Z" fill="#FD7519"/>
<path d="M210.331 14.049L211.658 14.4888V15.3685H210.331L211.219 16.6987C210.577 18.1737 208.224 18.9086 204.164 18.9086L201.081 19.3484L200.642 20.6679H201.081C200.203 22.7652 198.442 32.184 195.803 48.9244L197.12 54.6637H196.681C196.023 54.6637 195.434 53.1887 194.915 50.2439L195.354 45.8349V45.3843H194.915V46.2747C194.037 46.2747 193.598 46.5697 193.598 47.1544V47.5942L194.476 54.6637V55.1035H193.598L191.832 53.7733L191.393 54.2131H190.954C189.776 51.6734 189.188 49.4662 189.188 47.5942L189.626 48.034H190.076L189.188 44.9445L190.515 44.5047V42.2948H189.626V41.8549C190.51 41.8549 190.954 41.5626 190.954 40.9753V40.5354H190.076C190.076 38.1834 190.515 37.0061 191.393 37.0061V31.2668C191.856 30.8538 192.445 27.7642 193.159 21.9981L190.076 22.438L183.91 21.9981V21.5476L186.104 21.1077V21.5476L186.543 21.1077H193.159V19.7882L186.104 20.6679L185.665 20.2281H185.227L182.582 20.6679L181.266 19.7882L181.704 17.5784L181.266 17.1385C181.266 15.6662 183.027 14.9286 186.543 14.9286L210.331 14.049ZM207.697 15.3685V15.819H209.453V15.3685H207.697ZM191.393 40.0956L190.515 49.8041H191.393L190.954 47.5942V46.7145L191.832 45.3843H191.393L191.832 44.9445V44.5047L191.393 44.0648V43.625L192.271 41.8549L191.832 40.0956H191.393Z" fill="#FD7519"/>
<path d="M224.795 12.826C224.98 13.7137 226.155 14.1562 228.317 14.1562L231.839 29.604H234.922V30.0438L232.278 30.4837V30.9235C233.161 30.9235 233.606 31.2212 233.606 31.8139H237.128V32.2537C237.128 32.9135 235.656 33.4981 232.717 34.0131L233.606 36.6628L233.156 37.993L233.606 40.632L233.156 41.0826H233.606L233.156 41.5224L233.606 46.8218V49.4608L233.156 49.021H232.717L234.045 55.6399H233.156C233.156 54.7603 232.862 54.3204 232.278 54.3204V54.7603L232.717 56.0905H232.278L231.839 55.6399H231.4C231.4 56.525 231.106 56.9702 230.522 56.9702L228.317 49.4608H227.878V51.2309H227.429L226.551 45.9314L227.878 46.8218V46.3713C227.635 43.7269 227.193 42.4021 226.551 42.4021L226.99 41.9622V40.632H226.112V41.9622H225.673V40.1922L226.112 39.7523H225.673L225.234 40.1922V38.4328H225.673L226.112 38.8727H226.551L226.112 38.4328V35.7831L216.423 37.993V38.8727L219.507 37.993L221.262 38.4328L223.468 37.993V38.8727C217.301 39.983 214.218 41.4527 214.218 43.2817C213.439 46.5215 212.559 48.5812 211.574 49.4608V50.3512H210.257L209.818 49.9114H209.369V50.3512L208.052 49.4608L208.93 46.8218H208.491C207.613 46.8218 207.174 47.9992 207.174 50.3512L206.285 49.4608L206.735 46.8218L205.408 45.4916L212.901 27.3941H213.34C213.34 28.2818 213.632 28.7243 214.218 28.7243L214.657 26.5145L214.218 26.9543H213.779V25.1842L214.218 22.9851L214.657 23.4249H215.096L214.657 22.9851V22.5345L215.546 20.7752H215.985L216.423 21.215H216.862V20.7752C216.862 20.1905 216.423 19.8955 215.546 19.8955L217.74 13.7164H219.507L219.068 14.1562V14.5961C221.102 13.416 223.01 12.826 224.795 12.826ZM222.151 22.9851L218.629 32.2537H219.507C222.44 32.2537 224.051 31.3714 224.345 29.604L222.59 22.9851H222.151ZM218.179 25.6241L217.301 28.7243L216.862 28.2738H216.423L216.862 30.0438H217.301L218.629 26.0746V25.6241H218.179ZM213.34 29.604L212.901 30.0438V30.9235H213.34L213.779 29.604H213.34ZM215.985 31.3633L215.546 33.1334H215.985L216.423 32.6936V31.3633H215.985ZM212.013 31.8139L211.574 33.5732H212.013L212.901 31.8139H212.013ZM219.507 33.1334V33.5732H220.384C223.023 33.2809 224.345 32.8411 224.345 32.2537H223.907L219.507 33.1334ZM225.673 42.8419H226.551V45.4916H226.112L225.673 42.8419ZM231.839 45.9314V46.8218L232.278 48.5812H232.717V47.7015L232.278 45.9314H231.839ZM227.429 47.2617V48.1413L228.756 47.7015V46.8218L227.429 47.2617Z" fill="#FD7519"/>
</svg>
